<svg width="31" height="31" viewBox="0 0 31 31" fill="none" xmlns="http://www.w3.org/2000/svg">
<rect x="0.231689" y="0.000976562" width="30.0438" height="30.0438" rx="15.0219" fill="#FFF2F4"/>
<g clip-path="url(#clip0_538_701)">
<path d="M22.3547 12.0914C22.3213 11.3353 22.1991 10.8155 22.0239 10.365C21.8432 9.88694 21.5652 9.45889 21.201 9.10305C20.8452 8.74167 20.4143 8.46086 19.9417 8.28299C19.4887 8.10784 18.9716 7.98557 18.2155 7.95224C17.4538 7.91608 17.212 7.90771 15.28 7.90771C13.348 7.90771 13.1062 7.91608 12.3472 7.94941C11.5911 7.98275 11.0713 8.10513 10.621 8.28017C10.1428 8.46086 9.71475 8.73884 9.35891 9.10305C8.99753 9.45889 8.71683 9.88976 8.53885 10.3623C8.3637 10.8155 8.24143 11.3325 8.2081 12.0886C8.17194 12.8503 8.16357 13.0921 8.16357 15.0241C8.16357 16.9561 8.17194 17.1979 8.20527 17.9568C8.23861 18.7129 8.36099 19.2327 8.53614 19.6832C8.71683 20.1613 8.99753 20.5893 9.35891 20.9452C9.71475 21.3065 10.1456 21.5873 10.6182 21.7652C11.0713 21.9404 11.5883 22.0626 12.3445 22.096C13.1033 22.1294 13.3453 22.1377 15.2772 22.1377C17.2092 22.1377 17.4511 22.1294 18.21 22.096C18.9661 22.0626 19.4859 21.9404 19.9362 21.7652C20.8925 21.3955 21.6486 20.6394 22.0184 19.6832C22.1934 19.23 22.3158 18.7129 22.3491 17.9568C22.3825 17.1979 22.3908 16.9561 22.3908 15.0241C22.3908 13.0921 22.388 12.8503 22.3547 12.0914ZM21.0732 17.9012C21.0426 18.5962 20.9259 18.9715 20.8286 19.2217C20.5895 19.8416 20.0974 20.3336 19.4775 20.5727C19.2273 20.67 18.8493 20.7867 18.1571 20.8172C17.4065 20.8507 17.1814 20.8589 15.2828 20.8589C13.3841 20.8589 13.1562 20.8507 12.4084 20.8172C11.7134 20.7867 11.3381 20.67 11.0879 20.5727C10.7794 20.4587 10.4986 20.278 10.2707 20.0417C10.0344 19.811 9.85374 19.533 9.73972 19.2245C9.64243 18.9743 9.5257 18.5962 9.49518 17.9041C9.46174 17.1535 9.45349 16.9283 9.45349 15.0296C9.45349 13.131 9.46174 12.9031 9.49518 12.1553C9.5257 11.4604 9.64243 11.0851 9.73972 10.8349C9.85374 10.5263 10.0344 10.2456 10.2735 10.0176C10.5042 9.78128 10.7822 9.60059 11.0908 9.48669C11.341 9.38939 11.7191 9.27266 12.4112 9.24204C13.1617 9.2087 13.387 9.20034 15.2855 9.20034C17.187 9.20034 17.4121 9.2087 18.1599 9.24204C18.8549 9.27266 19.2302 9.38939 19.4803 9.48669C19.7888 9.60059 20.0697 9.78128 20.2976 10.0176C20.5339 10.2483 20.7146 10.5263 20.8286 10.8349C20.9259 11.0851 21.0426 11.4631 21.0732 12.1553C21.1066 12.9059 21.1149 13.131 21.1149 15.0296C21.1149 16.9283 21.1066 17.1507 21.0732 17.9012Z" fill="#CE192D"/>
<path d="M15.28 11.3687C13.2619 11.3687 11.6245 13.0059 11.6245 15.0241C11.6245 17.0423 13.2619 18.6796 15.28 18.6796C17.2982 18.6796 18.9355 17.0423 18.9355 15.0241C18.9355 13.0059 17.2982 11.3687 15.28 11.3687ZM15.28 17.3954C13.9708 17.3954 12.9088 16.3335 12.9088 15.0241C12.9088 13.7148 13.9708 12.6529 15.28 12.6529C16.5893 12.6529 17.6512 13.7148 17.6512 15.0241C17.6512 16.3335 16.5893 17.3954 15.28 17.3954Z" fill="#CE192D"/>
<path d="M19.9337 11.224C19.9337 11.6953 19.5516 12.0774 19.0802 12.0774C18.6089 12.0774 18.2268 11.6953 18.2268 11.224C18.2268 10.7526 18.6089 10.3706 19.0802 10.3706C19.5516 10.3706 19.9337 10.7526 19.9337 11.224Z" fill="#CE192D"/>
</g>
<defs>
<clipPath id="clip0_538_701">
<rect width="14.23" height="14.23" fill="white" transform="translate(8.13867 7.90771)"/>
</clipPath>
</defs>
</svg>
