<svg width="31" height="31" viewBox="0 0 31 31" fill="none" xmlns="http://www.w3.org/2000/svg">
<rect x="0.115967" width="30.0462" height="30.0462" rx="15.0231" fill="#FFF2F4"/>
<path d="M20.832 20.7163V16.5462C20.832 14.4967 20.3908 12.9312 17.9998 12.9312C16.847 12.9312 16.0784 13.5574 15.7653 14.1551H15.7368V13.1162H13.4739V20.7163H15.8365V16.9447C15.8365 15.9484 16.0215 14.9949 17.2455 14.9949C18.4552 14.9949 18.4695 16.1192 18.4695 17.0016V20.7021H20.832V20.7163Z" fill="#CE192D"/>
<path d="M9.6311 13.1162H11.9937V20.7163H9.6311V13.1162Z" fill="#CE192D"/>
<path d="M10.8124 9.33008C10.058 9.33008 9.44604 9.94207 9.44604 10.6964C9.44604 11.4507 10.058 12.0769 10.8124 12.0769C11.5667 12.0769 12.1787 11.4507 12.1787 10.6964C12.1787 9.94207 11.5667 9.33008 10.8124 9.33008Z" fill="#CE192D"/>
</svg>
