<svg width="32" height="33" viewBox="0 0 32 33" fill="none" xmlns="http://www.w3.org/2000/svg">
<rect x="0.677734" y="0.917969" width="31.3223" height="31.3223" rx="15.6611" fill="#FFF2F4"/>
<path d="M20.9864 13.2352L21.8692 12.387V12.2012H18.8117L16.6327 17.6508L14.1541 12.2012H10.9483V12.387L11.9795 13.6342C12.0803 13.7263 12.1321 13.8617 12.1192 13.9971V18.898C12.1508 19.0752 12.0947 19.2552 11.9708 19.3834L10.8086 20.7991V20.982H14.1009V20.7962L12.9401 19.3848C12.8779 19.3217 12.8311 19.245 12.8034 19.1608C12.7756 19.0767 12.7677 18.9872 12.7802 18.8995V14.6596L15.6707 20.9849H16.0062L18.492 14.6596V19.6988C18.492 19.8313 18.492 19.8586 18.4056 19.9465L17.5112 20.8149V21.0007H21.8491V20.8149L20.9864 19.9667C20.9115 19.909 20.8726 19.8126 20.8885 19.7189V13.4829C20.881 13.4367 20.8862 13.3892 20.9034 13.3456C20.9206 13.302 20.9493 13.2639 20.9864 13.2352Z" fill="#CE192D"/>
</svg>
